<?xml version="1.0" encoding="utf-8"?>
<!-- Generator: Adobe Illustrator 16.0.0, SVG Export Plug-In . SVG Version: 6.00 Build 0)  -->
<!DOCTYPE svg PUBLIC "-//W3C//DTD SVG 1.1//EN" "http://www.w3.org/Graphics/SVG/1.1/DTD/svg11.dtd">
<svg version="1.1" id="Layer_1" xmlns="http://www.w3.org/2000/svg" xmlns:xlink="http://www.w3.org/1999/xlink" x="0px" y="0px"
	 width="419px" height="229px" viewBox="0 0 419 229" enable-background="new 0 0 419 229" xml:space="preserve">
<g>
	<path fill="#D1D2D2" d="M373,188.58c0,5.921-4.152,10.42-9.984,10.42H117.852c-5.838,0-11.852-4.499-11.852-10.42V38.649
		c0-5.922,6.014-8.649,11.852-8.649h245.164c5.832,0,9.984,2.727,9.984,8.649V188.58z"/>
	<path fill="#076191" d="M106,185.502c0,5.918,2.377,13.498,8.217,13.498h247.159c5.687,0,11.624-1.999,11.624-11.498V40.573
		C373,32.859,369.594,30,362.376,30h-91.237C185.807,36,121,69.195,106,127.082V185.502z"/>
	<rect x="124" y="133" fill="#EDEDED" width="47" height="15"/>
	<rect x="184" y="133" fill="#EDEDED" width="50" height="15"/>
	<rect x="250" y="133" fill="#EDEDED" width="45" height="15"/>
	<rect x="311" y="133" fill="#EDEDED" width="46" height="15"/>
	<rect x="124" y="163" fill="#EDEDED" width="190" height="10"/>
	<g id="C1B_Logo_1_">
		<g>
			<g>
				<path fill="#FFFFFF" d="M349.635,60.828c0,0.99,0.795,1.795,1.771,1.795c0.975,0,1.766-0.805,1.766-1.795
					c0-0.995-0.791-1.796-1.766-1.796C350.43,59.032,349.635,59.833,349.635,60.828z M349.344,60.828
					c0-1.158,0.923-2.096,2.062-2.096c1.139,0,2.061,0.938,2.061,2.096c0,1.154-0.922,2.091-2.061,2.091
					C350.267,62.919,349.344,61.982,349.344,60.828z"/>
				<path fill="#FFFFFF" d="M350.612,61.958c0.092-0.004,0.181-0.016,0.269-0.016c0.091,0,0.185,0.012,0.271,0.016v-1.095h0.021
					c0.08,0.132,0.178,0.287,0.234,0.381l0.426,0.714c0.111-0.004,0.217-0.016,0.326-0.016c0.106,0,0.219,0.012,0.323,0.016
					l-0.14-0.208c-0.214-0.317-0.439-0.632-0.632-0.96c0.328-0.068,0.555-0.276,0.555-0.607c0-0.233-0.103-0.39-0.309-0.492
					c-0.152-0.071-0.414-0.066-0.582-0.066h-0.763L350.612,61.958L350.612,61.958z M351.146,59.808c0.222,0,0.49-0.025,0.545,0.256
					c0.02,0.072,0.02,0.126,0.02,0.171c0,0.344-0.186,0.521-0.563,0.486L351.146,59.808L351.146,59.808z"/>
			</g>
			<g>
				<g>
					<path fill="#FFFFFF" d="M280.844,52.492c6.344-2.799,16.084-5.18,27.17-6.357c19.998-2.125,36.82,0.475,37.578,5.803
						c0.57,4.002-8.082,8.404-20.889,11.251c9.951-2.939,16.262-6.761,15.704-10.183c-0.86-5.282-17.8-7.594-37.847-5.157
						C294.273,48.853,286.751,50.518,280.844,52.492z"/>
				</g>
				<g>
					<path fill="#FFFFFF" d="M256.646,72.755c-1.274,0.934-3.144,1.629-4.625,1.629c-3.676,0-5.129-2.605-4.334-6.309
						c0.683-3.189,3.025-6.637,6.992-6.637c1.547,0,2.899,0.82,3.532,1.995h0.335c0.354-0.761,0.655-1.497,1.026-2.235
						c-1.235-0.692-3.068-1.062-4.646-1.062c-5.207,0-10.059,2.58-11.271,8.238c-0.954,4.443,2.304,7.308,7.42,7.308
						c1.598,0,3.349-0.26,4.925-0.933l0.93-1.864L256.646,72.755z"/>
					<path fill="#FFFFFF" d="M257.613,75.398c0.563-0.042,1.125-0.102,1.673-0.102c0.555,0,1.087,0.059,1.628,0.102l0.84-3.922
						c0.148-0.697,0.334-1.887,0.682-2.514c0.486-0.934,1.455-1.432,2.504-1.432c0.383,0,0.891,0.083,1.16,0.282l0.25-0.173
						c0.129-0.931,0.408-1.929,0.75-2.946c-2.34,0-3.67,1.301-4.508,2.882l0.576-2.688c-0.561,0.046-1.124,0.107-1.672,0.107
						c-0.551,0-1.085-0.061-1.627-0.107L257.613,75.398z"/>
					<path fill="#FFFFFF" d="M269.891,69.111c0.289-1.15,0.951-3.441,2.693-3.441c1.434,0,1.085,2.291,0.842,3.441H269.891z
						 M276.494,70.157c0.928-3.102,0.025-5.464-3.725-5.464c-3.463,0-5.937,2.163-6.586,5.204c-0.757,3.534,0.809,5.7,4.774,5.7
						c1.168,0,2.541-0.373,3.625-0.977l0.787-1.214l-0.246-0.195c-0.86,0.567-2.021,0.978-3.002,0.978
						c-2.535,0-3.011-1.802-2.457-4.032H276.494z"/>
					<path fill="#FFFFFF" d="M291.061,58.923c-0.557,0.043-1.123,0.112-1.668,0.112c-0.555,0-1.088-0.069-1.629-0.112l-1.568,7.326
						c-0.452-1.123-1.508-1.556-2.916-1.556c-3.154,0-5.189,2.707-5.778,5.464c-0.603,2.792,0.007,5.439,3.54,5.439
						c1.579,0,2.946-0.822,3.721-2.104l-0.404,1.906c0.535-0.042,1.074-0.102,1.623-0.102c0.522,0,1.037,0.059,1.551,0.102
						L291.061,58.923z M284.195,66.099c1.914,0,1.566,2.625,1.299,3.883c-0.295,1.361-1.166,4.207-3.223,4.207
						c-1.936,0-1.521-2.712-1.25-3.969C281.312,68.856,282.145,66.099,284.195,66.099z"/>
					<path fill="#FFFFFF" d="M289.369,75.398c0.561-0.042,1.124-0.102,1.672-0.102s1.085,0.059,1.623,0.102l2.253-10.512
						c-0.558,0.042-1.122,0.107-1.674,0.107c-0.548,0-1.08-0.065-1.622-0.107L289.369,75.398z M292.232,60.917
						c-0.195,0.913,0.47,1.712,1.496,1.712s2.076-0.775,2.278-1.712c0.198-0.932-0.514-1.71-1.543-1.71
						C293.436,59.207,292.428,60.009,292.232,60.917z"/>
					<path fill="#FFFFFF" d="M301.114,66.27h2.026c0.037-0.494,0.118-0.885,0.299-1.383h-2.029l0.811-3.793
						c-1.254,0.497-2.426,0.955-3.584,1.344l-0.523,2.45h-1.624c-0.033,0.498-0.12,0.889-0.298,1.383h1.623l-1.248,5.817
						c-0.432,2.013-0.197,3.51,2.285,3.51c0.74,0,1.646-0.198,2.595-0.501l0.177-0.846c-2.23,0.5-2.154-0.3-1.833-1.799
						L301.114,66.27z"/>
					<path fill="#FFFFFF" d="M324.107,67.11c0.768-3.702-0.414-8.499-7.908-8.499c-6.547,0-11.184,3.841-12.199,8.592
						c-1.162,5.416,2.09,8.518,7.902,8.518C318.344,75.722,323.137,71.763,324.107,67.11z M315.732,60.047
						c3.941,0,4.765,3.529,4.104,6.606c-0.845,3.963-3.446,7.636-7.496,7.636c-3.946,0-4.791-3.292-4.129-6.397
						C309.357,62.55,312.08,60.047,315.732,60.047z"/>
					<path fill="#FFFFFF" d="M323.346,75.408c0.615-0.043,1.233-0.111,1.839-0.111c0.604,0,1.193,0.068,1.789,0.111l1.176-5.486
						c0.321-1.505,0.921-4.297,3.21-4.297c1.839,0,1.808,1.622,1.331,3.846l-1.273,5.937c0.613-0.043,1.236-0.111,1.844-0.111
						c0.601,0,1.191,0.068,1.782,0.111l1.501-6.991c0.615-2.86,0.191-4.793-3.125-4.793c-1.629,0-3.184,0.859-4.477,1.978
						l0.383-1.762c-0.594,0.043-1.187,0.116-1.763,0.116c-0.604,0-1.17-0.072-1.74-0.116L323.346,75.408z"/>
					<path fill="#FFFFFF" d="M341.752,68.488c0.325-1.263,1.049-3.794,2.967-3.794c1.578,0,1.195,2.531,0.924,3.794H341.752z
						 M349.024,69.635c1.021-3.41,0.027-6.01-4.102-6.01c-3.812,0-6.532,2.387-7.246,5.727c-0.834,3.889,0.892,6.273,5.252,6.273
						c1.291,0,2.795-0.405,3.992-1.072l0.867-1.337l-0.271-0.212c-0.95,0.619-2.231,1.077-3.309,1.077
						c-2.787,0-3.312-1.983-2.706-4.445L349.024,69.635L349.024,69.635z"/>
				</g>
				<g>
					<path fill="#FFFFFF" d="M268.251,84.029h1.209c0.587,0.012,1.286,0.012,1.851-0.343c0.558-0.345,0.924-0.842,1.041-1.449
						c0.189-1.001-0.639-1.31-1.291-1.351c0.781-0.187,1.474-0.712,1.627-1.519c0.17-0.883-0.416-1.184-1.662-1.184h-1.654
						L268.251,84.029z M270.057,78.502h0.623c0.889,0,1.396,0.233,1.238,1.048c-0.093,0.461-0.4,0.841-0.85,1.038
						c-0.5,0.212-0.967,0.177-1.446,0.177L270.057,78.502z M269.561,81.086h0.472c1.022,0,1.698,0.281,1.507,1.296
						c-0.148,0.78-0.852,1.329-1.678,1.329h-0.805L269.561,81.086z"/>
					<path fill="#FFFFFF" d="M287.491,78.056h-0.197l-3.782,5.995c0.098-0.005,0.193-0.022,0.301-0.022
						c0.104,0,0.191,0.017,0.306,0.022c0.396-0.799,0.844-1.559,1.28-2.318h2.152c0.188,0.784,0.332,1.607,0.442,2.318
						c0.146-0.005,0.296-0.022,0.452-0.022c0.146,0,0.277,0.017,0.434,0.022L287.491,78.056z M287.491,81.378h-1.861l1.345-2.199
						L287.491,81.378z"/>
					<g>
						<path fill="#FFFFFF" d="M321.778,78.184c-0.122,0.013-0.235,0.03-0.335,0.03c-0.117,0-0.226-0.017-0.336-0.03l-2.498,2.178
							c-0.144,0.127-0.354,0.304-0.529,0.42c-0.094,0.071-0.223,0.104-0.217,0.055l0.504-2.653c-0.137,0.013-0.256,0.03-0.374,0.03
							c-0.126,0-0.253-0.017-0.37-0.03l-1.121,5.873c0.119-0.011,0.25-0.028,0.377-0.028c0.117,0,0.23,0.017,0.363,0.028
							l0.576-2.999c0.004-0.029,0.103-0.003,0.141,0.028l1.422,2.187c0.165,0.251,0.303,0.506,0.435,0.784
							c0.151-0.009,0.319-0.028,0.479-0.028c0.145,0,0.295,0.017,0.461,0.028l0.01-0.044l-0.522-0.859
							c-0.521-0.798-1.076-1.571-1.6-2.359l0.858-0.744L321.778,78.184z"/>
					</g>
					<g>
						<path fill="#FFFFFF" d="M305.703,78.184c-0.088,0.013-0.168,0.03-0.238,0.03c-0.082,0-0.162-0.017-0.234-0.03l-0.845,4.421
							h-0.084l-3.172-4.421h-0.329l-1.124,5.873c0.079-0.011,0.155-0.028,0.241-0.028c0.076,0,0.15,0.017,0.232,0.028l0.886-4.626
							h0.082l2.868,4.102c0.143,0.195,0.274,0.4,0.343,0.519h0.251L305.703,78.184z"/>
					</g>
				</g>
			</g>
		</g>
	</g>
</g>
<circle fill="#D1D2D2" cx="107.882" cy="146.01" r="54.419"/>
<g>
	<path fill="#424242" d="M82,93V63.38c0-13.141,13.045-26.891,26-26.891s26,13.75,26,26.891v29.777c8,2.776,14,9.008,20,14.441
		V63.379c0-26.109-20.264-47.349-46-47.349c-25.738,0-46,21.24-46,47.35v44.581C67,102.438,72.828,96,81.303,93H82z"/>
	<path fill="#424242" d="M108.07,83.18c-34.244,0-62.002,28.158-62.002,62.895s27.759,62.896,62.002,62.896
		c34.245,0,62.002-28.158,62.002-62.896C170.073,111.338,142.315,83.18,108.07,83.18z M107.978,192.668
		c-27.039,0-45.944-19.177-45.944-46.607c0-27.429,18.905-46.604,45.944-46.604c27.041,0,45.945,19.176,45.945,46.604
		C153.922,173.491,135.019,192.668,107.978,192.668z"/>
	<path fill="#424242" d="M107.978,105.674c-21.989,0-39.813,18.079-39.813,40.387c0,22.31,17.824,40.39,39.813,40.39
		c21.994,0,39.815-18.08,39.815-40.39C147.793,123.753,129.971,105.674,107.978,105.674z M137.894,126.541l2.011,3.533
		l-11.466,6.714c-0.552-1.25-1.209-2.442-1.964-3.562L137.894,126.541z M122.097,160.305c-7.749,7.856-20.308,7.856-28.054,0
		c-7.748-7.859-7.748-20.6,0-28.461c7.747-7.857,20.307-7.857,28.054,0C129.846,139.705,129.846,152.445,122.097,160.305z
		 M124.274,114.222l3.484,2.04l-6.528,11.471c-1.079-0.803-2.229-1.513-3.441-2.112L124.274,114.222z M106,110h5v13.467
		c-1-0.089-2.112-0.138-2.943-0.138c-0.527,0-1.057,0.024-2.057,0.062V110z M92.567,114.222l6.301,11.07
		c-1.234,0.558-2.409,1.22-3.515,1.985l-6.269-11.017L92.567,114.222z M78.951,126.542l10.789,6.319
		c-0.776,1.104-1.462,2.279-2.038,3.518l-10.762-6.302L78.951,126.542z M73,144h12.655c-0.054,1-0.087,1.249-0.087,1.904
		c0,0.721,0.036,1.096,0.101,2.096H73V144z M78.951,165.771l-2.011-3.532l10.829-6.343c0.584,1.233,1.281,2.402,2.067,3.504
		L78.951,165.771z M92.567,178.094l-3.484-2.039l6.347-11.15c1.107,0.758,2.288,1.416,3.523,1.969L92.567,178.094z M111,182h-5
		v-13.266c1,0.037,1.53,0.062,2.057,0.062c0.831,0,1.943-0.05,2.943-0.14V182z M124.275,178.094l-6.57-11.544
		c1.216-0.597,2.367-1.302,3.448-2.103l6.605,11.604L124.275,178.094z M137.893,165.771l-11.512-6.74
		c0.763-1.113,1.432-2.299,1.991-3.543l11.531,6.752L137.893,165.771z M130.288,148c0.065-1,0.101-1.375,0.101-2.096
		c0-0.655-0.033-0.904-0.087-1.904H143v4H130.288z"/>
</g>
</svg>
