<?xml version="1.0" encoding="UTF-8"?>
<svg width="310px" height="326px" viewBox="0 0 310 326" version="1.1" xmlns="http://www.w3.org/2000/svg" xmlns:xlink="http://www.w3.org/1999/xlink">
    <!-- Generator: Sketch 50.2 (55047) - http://www.bohemiancoding.com/sketch -->
    <title>find-your-best-cc</title>
    <desc>Created with Sketch.</desc>
    <defs>
        <rect id="path-1" x="1.42108547e-14" y="1.13686838e-13" width="189.723259" height="123.096107" rx="7.115625"></rect>
        <circle id="path-3" cx="155" cy="155" r="155"></circle>
        <path d="M155,310 C240.604136,310 310,239.862305 310,155 C310,20.6855469 228.104136,-15 142.5,-15 C56.8958638,-15 0,69.3958638 0,155 C0,240.604136 69.3958638,310 155,310 Z" id="path-5"></path>
        <rect id="path-7" x="0" y="0" width="189.783242" height="124.42663" rx="7.115625"></rect>
        <rect id="path-9" x="9.09494702e-13" y="1.59161573e-12" width="195.276968" height="127.008785" rx="9.54059766"></rect>
    </defs>
    <g id="find-your-best-cc" stroke="none" stroke-width="1" fill="none" fill-rule="evenodd">
        <g id="CC-back" transform="translate(177.964781, 94.798214) rotate(23.000000) translate(-177.964781, -94.798214) translate(82.964781, 32.798214)">
            <mask id="mask-2" fill="white">
                <use xlink:href="#path-1"></use>
            </mask>
            <use id="path-5" fill="#328FE6" xlink:href="#path-1"></use>
            <g id="cc-back" mask="url(#mask-2)">
                <g transform="translate(-47.430815, -63.377921)" id="Group">
                    <g transform="translate(0.832119, 0.166407)">
                        <ellipse id="Oval-4" fill="#54A0E8" fill-rule="nonzero" cx="234.657715" cy="138.067255" rx="91.5331512" ry="91.4903499"></ellipse>
                        <ellipse id="Oval-4" fill="#4B99E2" fill-rule="nonzero" cx="144.788803" cy="164.68263" rx="48.2629343" ry="48.2403663"></ellipse>
                        <ellipse id="Oval-3" fill="#54A0E8" fill-rule="nonzero" cx="61.5768473" cy="61.5480536" rx="61.5768473" ry="61.5480536"></ellipse>
                    </g>
                </g>
            </g>
        </g>
        <g id="CC-Illustration" transform="translate(0.000000, 15.000000)">
            <mask id="mask-4" fill="white">
                <use xlink:href="#path-3"></use>
            </mask>
            <use id="Mask" fill="#FEEFD0" fill-rule="nonzero" xlink:href="#path-3"></use>
            <mask id="mask-6" fill="white">
                <use xlink:href="#path-5"></use>
            </mask>
            <g id="Mask-Copy" fill-rule="nonzero"></g>
            <g id="cc-illo-group" mask="url(#mask-6)">
                <g transform="translate(-50.000000, -25.000000)">
                    <g id="hand-mid-back" transform="translate(0.000000, 72.224490)">
                        <g id="hand" transform="translate(196.782410, 209.886195) scale(-1, 1) rotate(27.000000) translate(-196.782410, -209.886195) translate(61.282410, 43.386195)">
                            <path d="M62.718798,45.3801621 C62.3117611,43.7769649 61.9124704,42.2043984 61.5224176,40.6688982 C55.6400072,43.5506743 50.4034697,45.7854537 47.3628994,46.5925491 C30.5023083,54.5017536 8.61881441,60.4930751 0.999171958,41.3637594 C23.4109566,29.5412151 40.6541032,19.5457763 62.9714911,7.54662834 L78.5883631,0.807629555 C81.0360553,-0.247041086 83.5947051,0.0913117802 85.8337306,1.53385034 C97.2623663,8.88848629 147.001193,43.5226157 159.47813,54.8269025 L169.747507,116.408775 C169.747507,116.408775 125.646653,122.834474 100.983309,125.85579 C99.5037417,128.665877 97.7454438,131.698245 95.605433,134.98343 C96.2677049,147.417685 93.115631,157.06309 81.8931815,162.781214 C80.0487285,163.721009 73.0664221,166.74018 72.9640628,159.80894 C71.424466,161.111928 69.6405325,162.290293 67.5861536,163.337051 C65.735578,164.279966 58.7129821,167.316084 58.6562435,160.295423 C58.6204296,155.863934 58.9323996,150.007146 59.5921534,142.725062 C56.8028255,147.046213 52.690523,150.132974 46.9214203,150.952224 C44.4289142,151.306175 38.7534197,150.014536 38.9546865,146.702787 C39.4272693,138.926664 40.695839,127.787707 42.7603957,113.285917 C41.0701068,113.99163 39.2895451,114.460085 37.4708503,114.610568 C34.6522384,114.843787 28.8653154,114.087869 29.6837444,109.189282 C31.1220888,100.580284 33.8366737,87.796223 37.827499,70.8370999 L62.718798,45.3801621 Z" id="back-hand" fill="#BE663D"></path>
                            <path d="M180.815116,121.92112 L192.940963,191.451809 C205.845169,217.988577 270.609646,332.401361 270.609646,332.401361 L162.846605,332.401361 L134.600436,239.190923 C117.474871,209.009847 121.833684,219.934518 98.1218738,188.378575 C68.254399,146.008543 81.3954255,122.256172 73.7393492,105.252703 C69.6571022,96.1782441 62.1285443,76.4398932 54.2836745,57.6043669 C46.888252,39.8464667 45.8272125,25.9462472 50.6887901,18.8747476 L48.6283313,16.9274104 L74.4392017,1.71857698 C75.4278838,1.29109701 80.5317777,0.14709874 81.5337085,0.14709874 C82.863544,0.14709874 84.1768186,0.521762646 85.3940403,1.26448845 C105.2538,13.3841231 165.664715,55.2232213 171.333207,66.3107638 C175.573897,74.6055328 178.734252,93.1422495 180.814273,121.920914 Z M123.845244,107.789835 C123.923118,106.249986 123.438049,104.421811 122.390036,102.305311 C113.938908,85.7749472 103.612835,70.9118167 91.4118161,57.7159192 C99.6345018,84.3799003 102.607663,94.0593258 109.224261,100.763338 C111.239774,102.806269 116.903357,105.485983 123.845244,107.789835 Z" id="front-hand" fill="#CE764D"></path>
                        </g>
                        <g id="hand" transform="translate(213.778444, 133.100445) rotate(197.000000) translate(-213.778444, -133.100445) translate(171.778444, 81.100445)" fill="#BE663D">
                            <path d="M49.4966547,67.2756841 C82.3575973,67.2756841 93.9966547,60.3360978 93.9966547,51.7756841 C93.9966547,43.2152705 82.3575973,36.2756841 49.4966547,36.2756841 C16.6357121,36.2756841 -10.0033453,43.2152705 -10.0033453,51.7756841 C-10.0033453,60.3360978 16.6357121,67.2756841 49.4966547,67.2756841 Z" id="hand-crevace" transform="translate(41.996655, 51.775684) rotate(-56.000000) translate(-41.996655, -51.775684) "></path>
                        </g>
                    </g>
                    <g id="CC" transform="translate(213.722307, 118.113791) rotate(17.000000) translate(-213.722307, -118.113791) translate(101.722307, 29.613791)">
                        <g id="CC-back" transform="translate(121.890364, 72.287515) rotate(6.000000) translate(-121.890364, -72.287515) translate(26.549256, 9.631052)">
                            <g id="Group-2-Clipped">
                                <mask id="mask-8" fill="white">
                                    <use xlink:href="#path-7"></use>
                                </mask>
                                <use id="path-5" fill="#328FE6" xlink:href="#path-7"></use>
                                <g id="Group-2" mask="url(#mask-8)">
                                    <g transform="translate(-47.445811, -64.062961)" id="Group">
                                        <g transform="translate(0.832382, 0.168206)">
                                            <ellipse id="Oval-4" fill="#54A0E8" fill-rule="nonzero" cx="234.731905" cy="139.559598" rx="91.5620906" ry="92.4792519"></ellipse>
                                            <ellipse id="Oval-4" fill="#4B99E2" fill-rule="nonzero" cx="144.83458" cy="166.462654" rx="48.2781933" ry="48.7617874"></ellipse>
                                            <ellipse id="Oval-3" fill="#54A0E8" fill-rule="nonzero" cx="61.5963156" cy="62.2133149" rx="61.5963156" ry="62.2133149"></ellipse>
                                            <rect id="Rectangle" fill="#FFFFFF" fill-rule="nonzero" x="59.9315503" y="161.418331" width="39.9543669" height="6.72576379"></rect>
                                            <ellipse id="Oval-2" fill="#FFFFFF" fill-rule="nonzero" cx="63.2610809" cy="147.966803" rx="3.32953057" ry="3.3628819"></ellipse>
                                            <ellipse id="Oval-2" fill="#FFFFFF" fill-rule="nonzero" cx="73.2496726" cy="147.966803" rx="3.32953057" ry="3.3628819"></ellipse>
                                            <ellipse id="Oval-2" fill="#FFFFFF" fill-rule="nonzero" cx="83.2382643" cy="147.966803" rx="3.32953057" ry="3.3628819"></ellipse>
                                            <ellipse id="Oval-2" fill="#FFFFFF" fill-rule="nonzero" cx="93.2268559" cy="147.966803" rx="3.32953057" ry="3.3628819"></ellipse>
                                            <ellipse id="Oval-2" fill="#FFFFFF" fill-rule="nonzero" cx="119.863101" cy="147.966803" rx="3.32953057" ry="3.3628819"></ellipse>
                                            <ellipse id="Oval-2" fill="#FFFFFF" fill-rule="nonzero" cx="156.487937" cy="147.966803" rx="3.32953057" ry="3.3628819"></ellipse>
                                            <ellipse id="Oval-2" fill="#FFFFFF" fill-rule="nonzero" cx="183.124181" cy="147.966803" rx="3.32953057" ry="3.3628819"></ellipse>
                                            <ellipse id="Oval-2" fill="#FFFFFF" fill-rule="nonzero" cx="193.112773" cy="147.966803" rx="3.32953057" ry="3.3628819"></ellipse>
                                            <ellipse id="Oval-2" fill="#FFFFFF" fill-rule="nonzero" cx="203.101365" cy="147.966803" rx="3.32953057" ry="3.3628819"></ellipse>
                                            <ellipse id="Oval-2" fill="#FFFFFF" fill-rule="nonzero" cx="213.089956" cy="147.966803" rx="3.32953057" ry="3.3628819"></ellipse>
                                            <ellipse id="Oval-2" fill="#FFFFFF" fill-rule="nonzero" cx="136.510753" cy="147.966803" rx="3.32953057" ry="3.3628819"></ellipse>
                                            <ellipse id="Oval-2" fill="#FFFFFF" fill-rule="nonzero" cx="146.499345" cy="147.966803" rx="3.32953057" ry="3.3628819"></ellipse>
                                            <ellipse id="Oval-2" fill="#FFFFFF" fill-rule="nonzero" cx="149.828876" cy="147.966803" rx="3.32953057" ry="3.3628819"></ellipse>
                                        </g>
                                    </g>
                                </g>
                            </g>
                        </g>
                        <g id="CC-front" transform="translate(108.225587, 97.050751) rotate(-10.000000) translate(-108.225587, -97.050751) translate(10.587103, 33.244629)">
                            <g id="Group-2-Clipped">
                                <mask id="mask-10" fill="white">
                                    <use xlink:href="#path-9"></use>
                                </mask>
                                <use id="path-5" fill="#02427E" xlink:href="#path-9"></use>
                                <g id="Group-2" mask="url(#mask-10)">
                                    <g transform="translate(-48.065277, -65.392423)" id="Group">
                                        <g transform="translate(0.102512, 0.171696)">
                                            <ellipse id="Oval-4" fill="#06539C" fill-rule="nonzero" cx="241.526776" cy="142.455799" rx="94.2125722" ry="94.398421"></ellipse>
                                            <ellipse id="Oval-4" fill="#1F5C96" fill-rule="nonzero" cx="149.02716" cy="169.917158" rx="49.6757199" ry="49.7737129"></ellipse>
                                            <ellipse id="Oval-3" fill="#06539C" fill-rule="nonzero" cx="63.3793668" cy="63.5043923" rx="63.3793668" ry="63.5043923"></ellipse>
                                        </g>
                                    </g>
                                </g>
                            </g>
                            <g id="Group-2" transform="translate(15.700661, 82.457143)" fill="#DEEFFF" fill-rule="nonzero">
                                <ellipse id="Oval" cx="2.45322824" cy="2.45408163" rx="2.45322824" ry="2.45408163"></ellipse>
                                <ellipse id="Oval" cx="11.2848499" cy="2.45408163" rx="2.45322824" ry="2.45408163"></ellipse>
                                <ellipse id="Oval" cx="20.1164716" cy="2.45408163" rx="2.45322824" ry="2.45408163"></ellipse>
                                <ellipse id="Oval" cx="28.9480932" cy="2.45408163" rx="2.45322824" ry="2.45408163"></ellipse>
                                <ellipse id="Oval" cx="42.6861714" cy="2.45408163" rx="2.45322824" ry="2.45408163"></ellipse>
                                <ellipse id="Oval" cx="52.4990843" cy="2.45408163" rx="2.45322824" ry="2.45408163"></ellipse>
                                <ellipse id="Oval" cx="60.3494147" cy="2.45408163" rx="2.45322824" ry="2.45408163"></ellipse>
                                <ellipse id="Oval" cx="70.1623277" cy="2.45408163" rx="2.45322824" ry="2.45408163"></ellipse>
                                <ellipse id="Oval" cx="84.8816971" cy="2.45408163" rx="2.45322824" ry="2.45408163"></ellipse>
                                <ellipse id="Oval" cx="93.7133188" cy="2.45408163" rx="2.45322824" ry="2.45408163"></ellipse>
                                <ellipse id="Oval" cx="102.54494" cy="2.45408163" rx="2.45322824" ry="2.45408163"></ellipse>
                                <ellipse id="Oval" cx="111.376562" cy="2.45408163" rx="2.45322824" ry="2.45408163"></ellipse>
                                <ellipse id="Oval" cx="125.11464" cy="2.45408163" rx="2.45322824" ry="2.45408163"></ellipse>
                                <ellipse id="Oval" cx="133.946262" cy="2.45408163" rx="2.45322824" ry="2.45408163"></ellipse>
                                <ellipse id="Oval" cx="142.777884" cy="2.45408163" rx="2.45322824" ry="2.45408163"></ellipse>
                                <ellipse id="Oval" cx="152.590797" cy="2.45408163" rx="2.45322824" ry="2.45408163"></ellipse>
                                <path d="M2.9477913,17.6693878 L61.6162733,17.6693878 C62.7023413,17.6693878 63.5827733,18.5498198 63.5827733,19.6358878 L63.5827733,24.5375816 C63.5827733,25.6236496 62.7023413,26.5040816 61.6162733,26.5040816 L2.9477913,26.5040816 C1.86172334,26.5040816 0.981291296,25.6236496 0.981291296,24.5375816 L0.981291296,19.6358878 C0.981291296,18.5498198 1.86172334,17.6693878 2.9477913,17.6693878 Z M80.0267948,17.6693878 L122.657495,17.6693878 C123.743563,17.6693878 124.623995,18.5498198 124.623995,19.6358878 L124.623995,24.5375816 C124.623995,25.6236496 123.743563,26.5040816 122.657495,26.5040816 L80.0267948,26.5040816 C78.9407268,26.5040816 78.0602948,25.6236496 78.0602948,24.5375816 L78.0602948,19.6358878 C78.0602948,18.5498198 78.9407268,17.6693878 80.0267948,17.6693878 Z" id="Shape"></path>
                            </g>
                        </g>
                    </g>
                    <g id="hand-front" transform="translate(5.892128, 105.564626)">
                        <g id="hand" transform="translate(172.635519, 193.482038) scale(-1, 1) rotate(27.000000) translate(-172.635519, -193.482038) translate(61.135519, 33.982038)" fill="#CE764D">
                            <path d="M114.899083,318.605442 L86.6529141,225.395004 C69.5273495,195.213929 73.8861626,206.1386 50.174352,174.582656 C20.3068772,132.212625 33.4479036,108.460254 25.7918273,91.4567845 C21.7095803,82.3823257 14.1810225,62.6439749 6.33615259,43.8084485 C-3.07868492,21.2015256 -0.803956134,5.1108562 9.90509663,1.89897376 C25.8160139,-2.54934578 26.6522745,4.84532306 38.6678804,28.4472284 C56.2360911,62.9559539 57.0183313,64.4924855 63.0155061,76.2725616 C64.4885749,79.1660678 74.2110147,91.8531805 74.2110147,91.8531805 C74.2110147,91.8531805 113.029364,103.266125 132.867594,108.125202 L144.993441,177.655891 C157.897648,204.192658 222.662124,318.605442 222.662124,318.605442 L114.899083,318.605442 Z" id="Fill-14"></path>
                        </g>
                        <path d="M192.299021,37.0601466 C201.170456,37.0135105 203.095977,33.2371974 203.095977,24.0305731 C203.095977,14.8239487 203.095977,7.36050507 192.183441,7.36050507 C181.270904,7.36050507 181.270904,14.8239487 181.270904,24.0305731 C181.270904,33.2371974 183.427585,37.1067827 192.299021,37.0601466 Z" id="nail" fill="#DFA286" transform="translate(192.183441, 22.210534) rotate(-7.000000) translate(-192.183441, -22.210534) "></path>
                    </g>
                </g>
            </g>
        </g>
    </g>
</svg>